<?xml version="1.0" encoding="UTF-8"?>
<svg width="447.79" height="461.88" version="1.1" viewBox="0 0 447.79 461.88" xml:space="preserve" xmlns="http://www.w3.org/2000/svg" xmlns:cc="http://creativecommons.org/ns#" xmlns:dc="http://purl.org/dc/elements/1.1/" xmlns:rdf="http://www.w3.org/1999/02/22-rdf-syntax-ns#"><metadata><rdf:RDF><cc:Work rdf:about=""><dc:format>image/svg+xml</dc:format><dc:type rdf:resource="http://purl.org/dc/dcmitype/StillImage"/><dc:title/></cc:Work></rdf:RDF></metadata><defs><clipPath id="clipPath1125"><path d="m-99.225-169.42v364.12h351.71v-364.12z"/></clipPath></defs><g transform="matrix(1.3333 0 0 -1.3333 -170.08 790.24)"><g transform="translate(221.01 407.2)"><g clip-path="url(#clipPath1125)"><path d="m-66.786 90.555-15.7-116.91" fill="none" stroke="#000" stroke-linecap="round" stroke-linejoin="round" stroke-miterlimit="10" stroke-width=".79701"/><path d="m-82.486-26.355 315.93 3.8111" fill="none" stroke="#000" stroke-linecap="round" stroke-linejoin="round" stroke-miterlimit="10" stroke-width=".79701"/><path d="m233.45-22.544-300.23 113.1" fill="none" stroke="#000" stroke-linecap="round" stroke-linejoin="round" stroke-miterlimit="10" stroke-width=".79701"/><path d="m237.17 12c0 89.542-72.586 162.13-162.13 162.13-89.542 0-162.13-72.586-162.13-162.13 0-89.542 72.586-162.13 162.13-162.13 89.542 0 162.13 72.586 162.13 162.13z" fill="none" stroke="#808080" stroke-linecap="round" stroke-linejoin="round" stroke-miterlimit="10" stroke-width=".3985"/><path d="m96.531-83.972c0 32.618-26.441 59.06-59.06 59.06s-59.06-26.441-59.06-59.06c0-32.618 26.441-59.06 59.06-59.06s59.06 26.441 59.06 59.06z" fill="none" stroke="#808080" stroke-linecap="round" stroke-linejoin="round" stroke-miterlimit="10" stroke-width=".3985"/><path d="m75.04 12-59.099-150.97" fill="none" stroke="#000" stroke-linecap="round" stroke-linejoin="round" stroke-miterlimit="10" stroke-width=".79701"/><path d="m-66.786 90.555 103.54-115.47" fill="none" stroke="#000" stroke-linecap="round" stroke-linejoin="round" stroke-miterlimit="10" stroke-width=".79701"/><path d="m15.941-138.97-82.727 229.53" fill="none" stroke="#000" stroke-linecap="round" stroke-linejoin="round" stroke-miterlimit="10" stroke-width=".79701"/><path d="m37.471-83.972-0.71239 59.056" fill="none" stroke="#000" stroke-linecap="round" stroke-linejoin="round" stroke-miterlimit="10" stroke-width=".79701"/><path d="m73.084 174.12 3.9114-324.23" fill="none" stroke="#000" stroke-linecap="round" stroke-linejoin="round" stroke-miterlimit="10" stroke-width=".79701"/><path d="m-66.786 90.555 143.78-240.67" fill="none" stroke="#000" stroke-linecap="round" stroke-linejoin="round" stroke-miterlimit="10" stroke-width=".79701"/><path d="m36.759-24.916-20.818-114.06" fill="none" stroke="#000" stroke-linecap="round" stroke-linejoin="round" stroke-miterlimit="10" stroke-width=".79701"/><path d="m-64.295 90.555c0 1.3756-1.1151 2.4907-2.4907 2.4907s-2.4907-1.1151-2.4907-2.4907c0-1.3756 1.1151-2.4907 2.4907-2.4907s2.4907 1.1151 2.4907 2.4907z" fill="#4d4dff" stroke="#000" stroke-linecap="round" stroke-linejoin="round" stroke-miterlimit="10" stroke-width=".3985"/><g transform="translate(-76.98,94.46)"><g transform="translate(-144.03 -501.66)"><text transform="matrix(1 0 0 -1 144.03 501.66)" fill="#4d4dff" font-family="CMMI7" font-size="6.9738px"><tspan x="0" y="0">A</tspan></text></g></g><path d="m-79.995-26.355c0 1.3756-1.1151 2.4907-2.4907 2.4907-1.3756 0-2.4907-1.1151-2.4907-2.4907s1.1151-2.4907 2.4907-2.4907c1.3756 0 2.4907 1.1151 2.4907 2.4907z" fill="#4d4dff" stroke="#000" stroke-linecap="round" stroke-linejoin="round" stroke-miterlimit="10" stroke-width=".3985"/><g transform="translate(-94.129,-32.982)"><g transform="translate(-126.88 -374.22)"><text transform="matrix(1 0 0 -1 126.88 374.22)" fill="#4d4dff" font-family="CMMI7" font-size="6.9738px"><tspan x="0" y="0">B</tspan></text></g></g><path d="m235.94-22.544c0 1.3756-1.1151 2.4907-2.4907 2.4907s-2.4907-1.1151-2.4907-2.4907 1.1151-2.4907 2.4907-2.4907 2.4907 1.1151 2.4907 2.4907z" fill="#4d4dff" stroke="#000" stroke-linecap="round" stroke-linejoin="round" stroke-miterlimit="10" stroke-width=".3985"/><g transform="translate(237.8 -30.499)"><g transform="translate(-458.8 -376.7)"><text transform="matrix(1 0 0 -1 458.8 376.7)" fill="#4d4dff" font-family="CMMI7" font-size="6.9738px"><tspan x="0" y="0">C</tspan></text></g></g><path d="m77.033 12c0 1.1005-0.89207 1.9926-1.9926 1.9926-1.1005 0-1.9926-0.89208-1.9926-1.9926 0-1.1005 0.89209-1.9926 1.9926-1.9926 1.1005 0 1.9926 0.89209 1.9926 1.9926z" fill="#444" stroke="#000" stroke-linecap="round" stroke-linejoin="round" stroke-miterlimit="10" stroke-width=".3985"/><g transform="translate(78.351,12.442)"><g transform="translate(-299.36 -419.64)" fill="#444444"><text transform="matrix(1 0 0 -1 299.36 419.64)" font-family="CMMI7" font-size="6.9738px"><tspan x="0" y="0">O</tspan></text><text transform="matrix(1 0 0 -1 305.63 422.65)" font-family="CMSY5" font-size="4.9813px"><tspan x="0" y="0">0</tspan></text></g></g><path d="m75.077 174.12c0 1.1005-0.89207 1.9926-1.9926 1.9926-1.1005 0-1.9926-0.89208-1.9926-1.9926 0-1.1005 0.89209-1.9926 1.9926-1.9926 1.1005 0 1.9926 0.89209 1.9926 1.9926z" fill="#444" stroke="#000" stroke-linecap="round" stroke-linejoin="round" stroke-miterlimit="10" stroke-width=".3985"/><g transform="translate(74.278 178.78)"><g transform="translate(-295.29 -585.98)" fill="#444444"><text transform="matrix(1 0 0 -1 295.29 585.98)" font-family="CMMI7" font-size="6.9738px"><tspan x="0" y="0">P</tspan></text><text transform="matrix(1 0 0 -1 301.43 588.98)" font-family="CMSY5" font-size="4.9813px"><tspan x="0" y="0">0</tspan></text></g></g><path d="m39.962-83.972c0 1.3756-1.1151 2.4907-2.4907 2.4907s-2.4907-1.1151-2.4907-2.4907 1.1151-2.4907 2.4907-2.4907 2.4907 1.1151 2.4907 2.4907z" fill="#7d7dff" stroke="#000" stroke-linecap="round" stroke-linejoin="round" stroke-miterlimit="10" stroke-width=".3985"/><g transform="translate(42.045,-86.359)"><g transform="translate(-263.05 -320.84)"><text transform="matrix(1 0 0 -1 263.05 320.84)" fill="#7d7dff" font-family="CMMI7" font-size="6.9738px"><tspan x="0" y="0">O</tspan></text></g></g><path d="m38.751-24.916c0 1.1005-0.89209 1.9926-1.9926 1.9926-1.1005 0-1.9926-0.89209-1.9926-1.9926 0-1.1005 0.89207-1.9926 1.9926-1.9926 1.1005 0 1.9926 0.89207 1.9926 1.9926z" fill="#444" stroke="#000" stroke-linecap="round" stroke-linejoin="round" stroke-miterlimit="10" stroke-width=".3985"/><g transform="translate(38.8,-20.983)"><g transform="translate(-259.81 -386.21)"><text transform="matrix(1 0 0 -1 259.81 386.21)" fill="#444444" font-family="CMMI7" font-size="6.9738px"><tspan x="0" y="0">P</tspan></text></g></g><path d="m17.934-138.97c0 1.1005-0.89208 1.9926-1.9926 1.9926-1.1005 0-1.9926-0.89207-1.9926-1.9926 0-1.1005 0.89209-1.9926 1.9926-1.9926 1.1005 0 1.9926 0.89209 1.9926 1.9926z" fill="#444" stroke="#000" stroke-linecap="round" stroke-linejoin="round" stroke-miterlimit="10" stroke-width=".3985"/><g transform="translate(8.116,-148.16)"><g transform="translate(-229.12 -259.04)"><text transform="matrix(1 0 0 -1 229.12 259.04)" fill="#444444" font-family="CMMI7" font-size="6.9738px"><tspan x="0" y="0">Q</tspan></text></g></g><path d="m78.988-150.12c0 1.1005-0.89207 1.9926-1.9926 1.9926-1.1005 0-1.9926-0.89209-1.9926-1.9926 0-1.1005 0.89209-1.9926 1.9926-1.9926 1.1005 0 1.9926 0.89207 1.9926 1.9926z" fill="#444" stroke="#000" stroke-linecap="round" stroke-linejoin="round" stroke-miterlimit="10" stroke-width=".3985"/><g transform="translate(73.527 -160.93)"><g transform="translate(-294.54 -246.27)" fill="#444444"><text transform="matrix(1 0 0 -1 294.54 246.27)" font-family="CMMI7" font-size="6.9738px"><tspan x="0" y="0">A</tspan></text><text transform="matrix(1 0 0 -1 300.53 249.28)" font-family="CMSY5" font-size="4.9813px"><tspan x="0" y="0">0</tspan></text></g></g></g></g></g></svg>
